<svg xmlns="http://www.w3.org/2000/svg" viewBox="0 0 32 32"><rect width="32" height="32" fill="#cdd6f4" rx="5.29" ry="5.29"/><path fill="#1e1e2e" d="M25.95 3.8c-.42-.42-7.62 6.01-9.95 8.34-2.33-2.33-9.52-8.76-9.95-8.34-.61.6 1.78 16.72 2.16 17.5.2.44 4.7 4.61 7.79 7.17 3.1-2.56 7.58-6.73 7.79-7.16.38-.79 2.77-16.91 2.16-17.51Z"/><path fill="#1e1e2e" d="M15.6 24.72c-.32.5-8.77-6.77-9.14-7.23C6.04 16.98-.1 6.24.26 5.7c.33-.5 8.78 6.76 9.15 7.22.41.52 6.55 11.25 6.19 11.81Zm.8 0c.32.49 8.77-6.93 9.14-7.4.42-.52 6.55-11.36 6.2-11.92-.33-.49-8.78 6.93-9.15 7.4-.41.52-6.55 11.36-6.19 11.91Z"/><rect width="5.41" height="5.41" x="-7.51" y="19.11" fill="#1e1e2e" rx=".81" ry=".81" transform="scale(1.33 .48) rotate(-45)"/><path fill="#1e1e2e" d="M11.26 8.46h9.49v4.15h-9.49z"/><path fill="#cdd6f4" d="M14.5 17.17c-.1.17-3.46-.74-3.62-.83-.16-.1-2.6-2.64-2.5-2.8.08-.17 3.45.74 3.61.83.16.1 2.6 2.64 2.51 2.8zm3 0c.1.17 3.46-.74 3.62-.83.16-.1 2.6-2.64 2.5-2.8-.08-.17-3.45.74-3.61.83-.16.1-2.6 2.64-2.51 2.8Z"/></svg>